HIERARCHY
ROOT Hips
{
  OFFSET 57.8838 95.319 338.509
  CHANNELS 6 Xposition Yposition Zposition Zrotation Xrotation Yrotation
  JOINT LeftUpLeg
  {
    OFFSET 8.64259 1.95398 -2.38835
    CHANNELS 3 Zrotation Xrotation Yrotation
    JOINT LeftLeg
    {
      OFFSET 43.7702 0 0
      CHANNELS 3 Zrotation Xrotation Yrotation
      JOINT LeftFoot
      {
        OFFSET 40.6238 0 0
        CHANNELS 3 Zrotation Xrotation Yrotation
        JOINT LeftToeBase
        {
          OFFSET 12.7242 0 0
          CHANNELS 3 Zrotation Xrotation Yrotation
          End Site
          {
            OFFSET 0 0 0
          }
        }
      }
    }
  }
  JOINT RightUpLeg
  {
    OFFSET -8.2249 1.95398 -2.59336
    CHANNELS 3 Zrotation Xrotation Yrotation
    JOINT RightLeg
    {
      OFFSET 43.5653 0 0
      CHANNELS 3 Zrotation Xrotation Yrotation
      JOINT RightFoot
      {
        OFFSET 40.6238 0 0
        CHANNELS 3 Zrotation Xrotation Yrotation
        JOINT RightToeBase
        {
          OFFSET 12.7242 0 0
          CHANNELS 3 Zrotation Xrotation Yrotation
          End Site
          {
            OFFSET 0 0 0
          }
        }
      }
    }
  }
  JOINT Spine
  {
    OFFSET 0.165834 0.87714 6.61349
    CHANNELS 3 Zrotation Xrotation Yrotation
    JOINT Spine1
    {
      OFFSET 7.38963 1.71661e-005 0
      CHANNELS 3 Zrotation Xrotation Yrotation
      JOINT Spine2
      {
        OFFSET 11.9445 1.14441e-005 0
        CHANNELS 3 Zrotation Xrotation Yrotation
        JOINT Spine3
        {
          OFFSET 14.7254 4.19617e-005 0
          CHANNELS 3 Zrotation Xrotation Yrotation
          JOINT Spine4
          {
            OFFSET 10.9679 0 0
            CHANNELS 3 Zrotation Xrotation Yrotation
            JOINT RightShoulder
            {
              OFFSET 2.46616 -1.6653 3.69651
              CHANNELS 3 Zrotation Xrotation Yrotation
              JOINT RightArm
              {
                OFFSET 13.0012 0 0
                CHANNELS 3 Zrotation Xrotation Yrotation
                JOINT RightForeArm
                {
                  OFFSET 28.7848 1.62311e-005 0
                  CHANNELS 3 Zrotation Xrotation Yrotation
                  JOINT RightHand
                  {
                    OFFSET 26.5688 1.62095e-005 0
                    CHANNELS 3 Zrotation Xrotation Yrotation
                    End Site
                    {
                      OFFSET 0 0 0
                    }
                  }
                }
              }
            }
            JOINT LeftShoulder
            {
              OFFSET 2.38034 -1.29275 -3.7523
              CHANNELS 3 Zrotation Xrotation Yrotation
              JOINT LeftArm
              {
                OFFSET 16.3182 6.07031e-005 0
                CHANNELS 3 Zrotation Xrotation Yrotation
                JOINT LeftForeArm
                {
                  OFFSET 27.0901 0 0
                  CHANNELS 3 Zrotation Xrotation Yrotation
                  JOINT LeftHand
                  {
                    OFFSET 24.5451 1.51738e-005 0
                    CHANNELS 3 Zrotation Xrotation Yrotation
                    End Site
                    {
                      OFFSET 0 0 0
                    }
                  }
                }
              }
            }
            JOINT Neck
            {
              OFFSET 5.0226 -0.0266342 0
              CHANNELS 3 Zrotation Xrotation Yrotation
              JOINT Head
              {
                OFFSET 6.69364 2.86102e-005 0
                CHANNELS 3 Zrotation Xrotation Yrotation
                End Site
                {
                  OFFSET 0 0 0
                }
              }
            }
          }
        }
      }
    }
  }
}
MOTION
Frames:	6
Frame Time:	0.0416667
265.476 77.225 -272.273 -101.9 -51.7986 -101.884 -107.536 1.86477 106.62 98.08 22.8985 -100.921 51.51 -44.4198 -11.8733 -11.1889 -31.2013 26.2189 175.814 53.4638 78.032 -90.3314 -62.03 9.99701 60.5558 -23.2476 -28.0912 172.805 47.8174 123.923 -0.886413 3.40234 -89.645 20.0746 -1.54007 1.06097 8.4038 -1.49192 1.12705 -14.1358 -1.78751 0.548335 5.87688 -1.78751 0.548343 111.775 -14.3316 -56.2504 71.5188 -33.1049 33.3456 104.51 32.9299 -110.015 -37.7984 9.41709 -32.6876 -62.1648 -21.154 131.519 121.165 15.9866 -162.923 -115.964 -24.4638 -44.5572 37.832 -28.7536 -74.226 -62.4679 19.1204 -12.1861 -8.80784 13.1417 48.627 
265.743 77.2303 -272.495 -101.964 -52.0234 -101.895 -107.434 2.08465 106.249 98.5544 23.0273 -101.433 51.5884 -44.5668 -11.7919 -11.2318 -31.2599 26.2609 175.435 53.2177 78.1631 -90.4813 -61.7238 10.0801 60.6427 -23.6584 -28.2667 174.141 47.2276 123.036 -0.908666 3.40272 -89.6487 20.0755 -1.58549 1.06269 8.4048 -1.53723 1.13123 -14.1357 -1.83151 0.536736 5.87693 -1.8315 0.536739 111.801 -14.4232 -56.2296 71.4935 -33.1193 33.6826 106.452 32.055 -111.348 -37.3079 9.22861 -32.5302 -62.1247 -21.3096 131.518 121.024 16.5326 -162.832 -115.782 -24.8135 -44.0662 38.0247 -28.8982 -74.2289 -62.2626 19.1157 -12.1684 -8.96452 13.088 48.6318 
266.552 77.25 -273.164 -102.184 -52.7365 -101.952 -107.161 2.71993 105.109 99.8134 23.4441 -102.913 51.6891 -44.8986 -11.7183 -11.3837 -31.4352 26.3555 174.269 52.4092 78.5458 -90.9156 -60.7387 10.3408 60.9352 -24.9336 -28.7933 177.751 45.494 120.699 -0.979553 3.40376 -89.659 20.0785 -1.7298 1.07243 8.40812 -1.68095 1.14753 -14.1356 -1.97212 0.502822 5.87708 -1.97213 0.502828 111.882 -14.7075 -56.1676 71.4101 -33.1502 34.7181 111.568 29.3228 -114.733 -35.9833 8.61951 -31.7744 -62.0025 -21.7851 131.516 120.584 18.1801 -162.532 -115.182 -25.8403 -42.558 38.6154 -29.3323 -74.2187 -61.6282 19.1016 -12.1094 -9.44847 12.9239 48.6417 
267.803 77.2848 -274.201 -102.604 -53.9485 -102.116 -106.845 3.62321 103.298 101.442 24.1499 -105.095 51.5596 -45.1857 -11.9427 -11.6766 -31.6984 26.4117 172.41 50.9614 79.0922 -91.5349 -59.0066 10.7739 61.4976 -27.0075 -29.578 -177.931 43.0772 118.018 -1.10156 3.40506 -89.6722 20.0809 -1.97538 1.09872 8.41095 -1.92511 1.1846 -14.1353 -2.21422 0.454003 5.87732 -2.21423 0.454012 112.012 -15.1715 -56.0728 71.2586 -33.1582 36.3771 117.696 25.0192 -118.425 -34.4472 7.67285 -30.0476 -61.8098 -22.5386 131.512 119.844 20.7433 -161.988 -114.102 -27.3486 -40.1198 39.5582 -29.9988 -74.15 -60.6055 19.0803 -12.001 -10.2309 12.664 48.6449 
269.407 77.3271 -275.531 -103.324 -55.7061 -102.496 -106.632 4.63766 100.909 103.269 25.1234 -107.828 51.0821 -45.3061 -12.563 -12.1367 -32.0136 26.3362 169.941 48.7334 79.7028 -92.2339 -56.3315 11.38 62.4817 -29.8369 -30.4683 -174.667 40.7431 116.033 -1.2814 3.40771 -89.6839 20.0763 -2.33277 1.15275 8.40685 -2.27977 1.25434 -14.1443 -2.57131 0.397981 5.86833 -2.57131 0.397976 112.188 -15.8117 -55.9544 71.0141 -33.0906 38.6026 123.392 19.608 -121.203 -33.4039 6.61682 -27.4144 -61.5557 -23.5371 131.504 118.763 24.0641 -161.125 -112.452 -29.1288 -36.7788 40.8204 -30.8432 -73.9688 -59.2205 19.0556 -11.8288 -11.2968 12.3213 48.6263 
271.268 77.3582 -277.078 -104.497 -58.0553 -103.245 -106.69 5.62143 98.0677 105.325 26.2811 -111.032 50.2736 -45.2322 -13.4964 -12.7674 -32.332 26.0484 166.962 45.5636 80.292 -92.905 -52.3552 12.1526 64.1935 -33.3355 -31.1555 -174.463 39.631 115.673 -1.52615 3.41939 -89.69 20.0585 -2.81454 1.24424 8.38984 -2.75704 1.36697 -14.1691 -3.05827 0.34014 5.84351 -3.05826 0.34013 112.406 -16.6282 -55.8228 70.6326 -32.8855 41.3257 128.218 13.5457 -122.573 -33.4638 5.71359 -24.399 -61.2494 -24.7477 131.493 117.262 27.9745 -159.836 -110.171 -30.9436 -32.5584 42.3674 -31.8046 -73.619 -57.4999 19.0333 -11.5745 -12.6332 11.9108 48.5693 
